<svg xmlns="http://www.w3.org/2000/svg" width="19.58" height="16.425" viewBox="0 0 19.58 16.425">
  <g id="Group_4844" data-name="Group 4844" transform="translate(-356.603 -234.296)">
    <g id="DelfiPlius" transform="translate(356.603 238.165)">
      <g id="Delfi" transform="translate(0 0)">
        <g id="Group_4842" data-name="Group 4842">
          <path id="Path_3376" data-name="Path 3376" d="M366.4,261.554a6.573,6.573,0,0,0-2.115-1.34,6.881,6.881,0,0,0-2.607-.491H356.6v12.556h5.079a6.934,6.934,0,0,0,4.722-1.817,6.571,6.571,0,0,0,1.415-2,5.9,5.9,0,0,0,.521-2.443,6.1,6.1,0,0,0-.521-2.487A6.576,6.576,0,0,0,366.4,261.554Zm-1.43,5.9a3.458,3.458,0,0,1-.774,1.162,3.694,3.694,0,0,1-1.162.774,3.823,3.823,0,0,1-1.43.283h-2.026v-7.343h2.041a3.553,3.553,0,0,1,1.43.283,3.615,3.615,0,0,1,1.936,1.966,3.922,3.922,0,0,1,.283,1.46A4.443,4.443,0,0,1,364.974,267.452Z" transform="translate(-356.603 -259.722)" fill="#00c6a0"/>
        </g>
      </g>
    </g>
    <g id="Group_4843" data-name="Group 4843" transform="translate(368.352 234.296)">
      <path id="Path_3377" data-name="Path 3377" d="M433.822,237.3h3.006V234.3h1.819V237.3h3.006v1.8h-3.006v3.006h-1.819V239.1h-3.006Z" transform="translate(-433.822 -234.296)" fill="#00c6a0"/>
    </g>
  </g>
</svg>
